PathFileType	4	(X/Y/Z)	distal_points_all_segments.trc
DataRate	CameraRate	NumFrames	NumMarkers	Units	OrigDataRate	OrigDataStartFrame	OrigNumFrames
60.0	60.0	35	18	m	60.0	182	290
Frame#	Time	worldbody			l_thigh			l_shank			l_foot			l_toes			r_thigh			r_shank			r_foot			r_toes			head			torso			l_uarm			l_larm			l_hand			r_uarm			r_larm			r_hand			pelvis_shifted		
		X1	Y1	Z1	X2	Y2	Z2	X3	Y3	Z3	X4	Y4	Z4	X5	Y5	Z5	X6	Y6	Z6	X7	Y7	Z7	X8	Y8	Z8	X9	Y9	Z9	X10	Y10	Z10	X11	Y11	Z11	X12	Y12	Z12	X13	Y13	Z13	X14	Y14	Z14	X15	Y15	Z15	X16	Y16	Z16	X17	Y17	Z17	X18	Y18	Z18
182	3.01667	0.000	0.000	0.000	0.216	0.792	0.660	0.187	0.768	0.274	0.236	0.680	0.147	0.165	0.841	0.131	0.462	0.818	0.656	0.507	0.804	0.274	0.494	0.700	0.151	0.514	0.879	0.131	0.330	0.834	1.756	0.323	0.870	1.607	0.009	0.717	1.437	0.116	0.816	1.247	0.236	0.960	1.097	0.682	0.853	1.449	0.539	0.892	1.260	0.350	0.971	1.133	0.338	0.844	1.122
183	3.03333	0.000	0.000	0.000	0.217	0.796	0.693	0.192	0.762	0.307	0.245	0.671	0.183	0.166	0.826	0.160	0.459	0.822	0.687	0.497	0.790	0.305	0.479	0.680	0.189	0.501	0.857	0.158	0.331	0.829	1.784	0.324	0.865	1.631	0.012	0.710	1.451	0.116	0.825	1.267	0.245	0.980	1.137	0.681	0.852	1.471	0.541	0.893	1.279	0.348	0.979	1.163	0.339	0.846	1.153
184	3.05000	0.000	0.000	0.000	0.216	0.805	0.720	0.198	0.752	0.336	0.255	0.655	0.219	0.172	0.807	0.186	0.456	0.828	0.714	0.486	0.775	0.334	0.467	0.654	0.229	0.477	0.828	0.182	0.331	0.824	1.812	0.324	0.862	1.652	0.014	0.704	1.464	0.115	0.830	1.286	0.251	0.992	1.174	0.680	0.852	1.492	0.544	0.894	1.298	0.350	0.979	1.183	0.339	0.848	1.181
185	3.06667	0.000	0.000	0.000	0.216	0.813	0.743	0.203	0.744	0.362	0.258	0.640	0.251	0.181	0.792	0.208	0.453	0.832	0.739	0.476	0.762	0.361	0.463	0.631	0.268	0.452	0.801	0.206	0.332	0.820	1.836	0.324	0.860	1.671	0.017	0.699	1.479	0.112	0.831	1.303	0.250	0.995	1.196	0.681	0.854	1.513	0.547	0.893	1.316	0.352	0.971	1.198	0.339	0.851	1.205
186	3.08333	0.000	0.000	0.000	0.217	0.817	0.763	0.204	0.739	0.383	0.254	0.628	0.275	0.188	0.784	0.228	0.448	0.833	0.761	0.468	0.753	0.385	0.462	0.616	0.300	0.432	0.782	0.230	0.333	0.817	1.857	0.323	0.859	1.689	0.020	0.694	1.495	0.108	0.829	1.317	0.241	0.995	1.205	0.682	0.856	1.532	0.550	0.892	1.334	0.355	0.963	1.211	0.338	0.854	1.226
187	3.10000	0.000	0.000	0.000	0.221	0.817	0.780	0.205	0.738	0.401	0.246	0.624	0.293	0.191	0.784	0.245	0.443	0.832	0.781	0.462	0.747	0.406	0.461	0.610	0.322	0.423	0.773	0.252	0.334	0.813	1.874	0.323	0.857	1.706	0.024	0.688	1.510	0.105	0.825	1.330	0.230	0.993	1.213	0.682	0.858	1.548	0.550	0.892	1.349	0.358	0.965	1.225	0.337	0.857	1.245
188	3.11667	0.000	0.000	0.000	0.224	0.816	0.796	0.206	0.741	0.415	0.242	0.626	0.306	0.192	0.789	0.261	0.438	0.830	0.799	0.456	0.743	0.424	0.458	0.607	0.337	0.421	0.771	0.270	0.335	0.810	1.888	0.323	0.856	1.722	0.027	0.681	1.523	0.104	0.819	1.343	0.219	0.995	1.227	0.680	0.859	1.561	0.549	0.893	1.362	0.358	0.980	1.244	0.336	0.861	1.261
189	3.13333	0.000	0.000	0.000	0.225	0.815	0.809	0.208	0.745	0.427	0.244	0.633	0.316	0.192	0.796	0.274	0.434	0.827	0.814	0.451	0.739	0.439	0.455	0.606	0.349	0.422	0.772	0.284	0.334	0.808	1.899	0.322	0.854	1.735	0.029	0.675	1.536	0.104	0.813	1.354	0.210	1.000	1.248	0.677	0.860	1.571	0.547	0.897	1.371	0.356	0.997	1.265	0.335	0.864	1.274
190	3.15000	0.000	0.000	0.000	0.224	0.817	0.818	0.210	0.752	0.436	0.250	0.641	0.324	0.194	0.803	0.283	0.430	0.824	0.825	0.446	0.737	0.450	0.452	0.605	0.359	0.422	0.772	0.295	0.335	0.806	1.907	0.321	0.854	1.746	0.031	0.669	1.547	0.104	0.808	1.365	0.202	1.004	1.268	0.674	0.859	1.579	0.546	0.902	1.379	0.351	1.001	1.277	0.334	0.866	1.284
191	3.16667	0.000	0.000	0.000	0.224	0.820	0.825	0.214	0.759	0.442	0.256	0.650	0.329	0.197	0.811	0.289	0.428	0.822	0.833	0.443	0.736	0.457	0.448	0.604	0.366	0.418	0.771	0.302	0.335	0.806	1.914	0.321	0.854	1.753	0.032	0.665	1.557	0.103	0.804	1.374	0.194	1.005	1.281	0.672	0.859	1.584	0.543	0.909	1.386	0.345	0.994	1.280	0.333	0.867	1.291
192	3.18333	0.000	0.000	0.000	0.224	0.824	0.828	0.217	0.767	0.445	0.260	0.659	0.331	0.201	0.820	0.292	0.426	0.820	0.836	0.441	0.736	0.461	0.444	0.603	0.370	0.414	0.770	0.305	0.336	0.806	1.919	0.320	0.855	1.757	0.034	0.662	1.564	0.103	0.801	1.381	0.188	1.006	1.288	0.672	0.859	1.586	0.540	0.913	1.392	0.340	0.990	1.282	0.331	0.867	1.294
193	3.20000	0.000	0.000	0.000	0.224	0.828	0.829	0.219	0.775	0.445	0.262	0.668	0.331	0.204	0.830	0.293	0.424	0.819	0.836	0.441	0.735	0.461	0.442	0.602	0.371	0.411	0.768	0.306	0.337	0.807	1.921	0.320	0.856	1.758	0.034	0.660	1.568	0.104	0.799	1.385	0.182	1.006	1.291	0.672	0.861	1.586	0.537	0.915	1.394	0.338	0.992	1.282	0.330	0.866	1.295
194	3.21667	0.000	0.000	0.000	0.223	0.833	0.828	0.221	0.782	0.443	0.263	0.676	0.328	0.207	0.839	0.292	0.424	0.818	0.834	0.442	0.735	0.458	0.443	0.602	0.367	0.413	0.769	0.303	0.337	0.809	1.921	0.321	0.859	1.757	0.036	0.659	1.571	0.107	0.797	1.388	0.176	1.005	1.288	0.672	0.865	1.585	0.534	0.916	1.395	0.337	0.993	1.278	0.328	0.865	1.293
195	3.23333	0.000	0.000	0.000	0.223	0.836	0.824	0.222	0.789	0.439	0.264	0.684	0.323	0.208	0.847	0.288	0.423	0.818	0.829	0.443	0.736	0.453	0.447	0.605	0.360	0.418	0.773	0.298	0.337	0.813	1.918	0.321	0.862	1.755	0.038	0.659	1.571	0.109	0.795	1.387	0.172	1.002	1.283	0.672	0.868	1.581	0.532	0.916	1.392	0.336	0.989	1.272	0.327	0.864	1.289
196	3.25000	0.000	0.000	0.000	0.223	0.839	0.817	0.223	0.796	0.432	0.266	0.693	0.314	0.209	0.856	0.282	0.422	0.818	0.822	0.444	0.741	0.445	0.450	0.612	0.349	0.425	0.782	0.290	0.337	0.818	1.912	0.321	0.866	1.752	0.040	0.660	1.569	0.110	0.794	1.383	0.171	0.999	1.274	0.671	0.870	1.575	0.530	0.915	1.385	0.334	0.990	1.268	0.326	0.863	1.283
197	3.26667	0.000	0.000	0.000	0.222	0.841	0.807	0.224	0.803	0.421	0.269	0.703	0.302	0.209	0.865	0.272	0.421	0.819	0.812	0.445	0.748	0.434	0.450	0.621	0.334	0.432	0.794	0.280	0.337	0.823	1.904	0.321	0.869	1.744	0.039	0.662	1.565	0.110	0.791	1.376	0.172	0.994	1.264	0.670	0.872	1.565	0.528	0.914	1.375	0.331	0.996	1.263	0.324	0.862	1.273
198	3.28333	0.000	0.000	0.000	0.221	0.843	0.794	0.224	0.812	0.407	0.271	0.714	0.287	0.208	0.875	0.259	0.422	0.820	0.798	0.448	0.756	0.419	0.447	0.633	0.315	0.439	0.808	0.267	0.338	0.829	1.893	0.321	0.873	1.732	0.037	0.664	1.559	0.108	0.789	1.367	0.170	0.991	1.253	0.669	0.873	1.550	0.526	0.912	1.361	0.328	0.998	1.253	0.322	0.860	1.260
199	3.30000	0.000	0.000	0.000	0.220	0.845	0.778	0.223	0.821	0.391	0.271	0.725	0.269	0.207	0.887	0.244	0.423	0.822	0.782	0.451	0.765	0.402	0.444	0.647	0.293	0.445	0.823	0.252	0.338	0.835	1.879	0.322	0.876	1.717	0.034	0.665	1.550	0.105	0.787	1.355	0.168	0.988	1.240	0.669	0.873	1.532	0.524	0.910	1.344	0.324	0.990	1.235	0.319	0.856	1.244
200	3.31667	0.000	0.000	0.000	0.219	0.847	0.761	0.221	0.829	0.373	0.269	0.737	0.248	0.204	0.899	0.228	0.424	0.824	0.763	0.454	0.776	0.382	0.442	0.662	0.269	0.452	0.840	0.235	0.339	0.841	1.861	0.322	0.880	1.698	0.033	0.666	1.538	0.102	0.785	1.341	0.169	0.981	1.220	0.668	0.870	1.512	0.522	0.907	1.324	0.320	0.977	1.213	0.316	0.853	1.227
201	3.33333	0.000	0.000	0.000	0.216	0.848	0.741	0.218	0.836	0.353	0.267	0.748	0.225	0.200	0.910	0.210	0.426	0.828	0.743	0.459	0.788	0.361	0.444	0.679	0.243	0.460	0.858	0.216	0.340	0.848	1.841	0.323	0.883	1.676	0.032	0.667	1.524	0.100	0.784	1.325	0.168	0.973	1.194	0.668	0.867	1.489	0.521	0.901	1.301	0.316	0.969	1.194	0.314	0.849	1.207
202	3.35000	0.000	0.000	0.000	0.213	0.848	0.718	0.215	0.841	0.330	0.266	0.759	0.199	0.194	0.919	0.189	0.427	0.833	0.720	0.465	0.799	0.338	0.451	0.695	0.216	0.468	0.875	0.196	0.341	0.856	1.819	0.323	0.887	1.653	0.029	0.669	1.507	0.097	0.783	1.307	0.164	0.966	1.166	0.666	0.864	1.464	0.519	0.894	1.276	0.313	0.970	1.177	0.311	0.846	1.184
203	3.36667	0.000	0.000	0.000	0.209	0.848	0.691	0.212	0.844	0.303	0.263	0.766	0.171	0.186	0.924	0.164	0.428	0.839	0.694	0.471	0.810	0.312	0.462	0.710	0.185	0.476	0.891	0.173	0.341	0.863	1.794	0.322	0.891	1.626	0.025	0.673	1.488	0.094	0.782	1.285	0.163	0.962	1.143	0.664	0.862	1.436	0.516	0.888	1.248	0.309	0.971	1.159	0.308	0.843	1.158
204	3.38333	0.000	0.000	0.000	0.204	0.850	0.662	0.207	0.845	0.275	0.256	0.768	0.140	0.178	0.925	0.137	0.431	0.847	0.664	0.477	0.819	0.283	0.473	0.723	0.153	0.484	0.904	0.147	0.340	0.870	1.767	0.321	0.895	1.597	0.022	0.677	1.467	0.090	0.781	1.261	0.166	0.959	1.120	0.663	0.859	1.407	0.513	0.881	1.219	0.306	0.969	1.134	0.305	0.841	1.129
205	3.40000	0.000	0.000	0.000	0.198	0.856	0.632	0.203	0.843	0.245	0.248	0.765	0.110	0.171	0.923	0.107	0.434	0.856	0.633	0.483	0.826	0.252	0.481	0.734	0.120	0.494	0.915	0.118	0.339	0.877	1.736	0.320	0.899	1.564	0.019	0.683	1.443	0.087	0.780	1.235	0.169	0.955	1.092	0.662	0.856	1.376	0.511	0.876	1.190	0.307	0.963	1.097	0.303	0.838	1.098
206	3.41667	0.000	0.000	0.000	0.190	0.865	0.602	0.200	0.838	0.215	0.243	0.759	0.080	0.168	0.918	0.077	0.437	0.869	0.600	0.487	0.831	0.220	0.485	0.742	0.085	0.504	0.923	0.088	0.338	0.884	1.702	0.319	0.902	1.530	0.015	0.688	1.415	0.085	0.780	1.205	0.169	0.950	1.058	0.663	0.852	1.344	0.511	0.870	1.158	0.309	0.950	1.054	0.301	0.835	1.066
207	3.43333	0.000	0.000	0.000	0.180	0.876	0.570	0.201	0.826	0.186	0.241	0.749	0.049	0.168	0.909	0.051	0.441	0.885	0.566	0.489	0.828	0.188	0.486	0.745	0.050	0.511	0.924	0.060	0.337	0.891	1.663	0.318	0.906	1.494	0.010	0.694	1.384	0.084	0.780	1.172	0.170	0.944	1.020	0.665	0.848	1.309	0.512	0.865	1.124	0.311	0.935	1.012	0.300	0.831	1.031
208	3.45000	0.000	0.000	0.000	0.169	0.888	0.537	0.204	0.805	0.160	0.238	0.738	0.016	0.170	0.900	0.032	0.446	0.903	0.531	0.488	0.815	0.159	0.485	0.742	0.015	0.514	0.919	0.039	0.336	0.898	1.622	0.317	0.909	1.456	0.003	0.701	1.349	0.082	0.780	1.136	0.176	0.937	0.980	0.666	0.844	1.272	0.513	0.858	1.086	0.313	0.925	0.971	0.300	0.828	0.995
209	3.46667	0.000	0.000	0.000	0.160	0.900	0.504	0.206	0.784	0.137	0.233	0.733	-0.015	0.173	0.894	0.022	0.452	0.923	0.499	0.486	0.796	0.138	0.485	0.736	-0.012	0.516	0.910	0.027	0.334	0.905	1.579	0.316	0.914	1.415	-0.005	0.710	1.311	0.081	0.781	1.099	0.183	0.930	0.941	0.667	0.841	1.231	0.514	0.850	1.045	0.316	0.924	0.930	0.299	0.824	0.959
210	3.48333	0.000	0.000	0.000	0.153	0.911	0.474	0.208	0.768	0.118	0.228	0.735	-0.040	0.174	0.892	0.018	0.457	0.944	0.472	0.486	0.781	0.124	0.485	0.731	-0.029	0.519	0.902	0.023	0.330	0.912	1.536	0.315	0.918	1.374	-0.014	0.719	1.272	0.080	0.783	1.060	0.190	0.925	0.901	0.667	0.840	1.188	0.514	0.843	1.002	0.318	0.925	0.888	0.299	0.819	0.924
211	3.50000	0.000	0.000	0.000	0.148	0.923	0.448	0.210	0.759	0.103	0.227	0.740	-0.058	0.174	0.891	0.016	0.461	0.965	0.449	0.486	0.774	0.116	0.485	0.731	-0.040	0.522	0.899	0.019	0.326	0.918	1.493	0.313	0.923	1.333	-0.021	0.729	1.231	0.079	0.785	1.021	0.199	0.921	0.863	0.667	0.841	1.147	0.514	0.838	0.960	0.320	0.919	0.843	0.301	0.813	0.893
212	3.51667	0.000	0.000	0.000	0.145	0.936	0.427	0.215	0.755	0.092	0.228	0.746	-0.070	0.174	0.891	0.014	0.462	0.984	0.429	0.487	0.772	0.109	0.485	0.733	-0.048	0.523	0.899	0.016	0.323	0.925	1.452	0.311	0.927	1.294	-0.026	0.740	1.190	0.079	0.787	0.979	0.212	0.917	0.827	0.666	0.844	1.107	0.516	0.834	0.920	0.322	0.908	0.798	0.304	0.806	0.864
213	3.53333	0.000	0.000	0.000	0.144	0.952	0.411	0.218	0.753	0.086	0.229	0.750	-0.076	0.174	0.891	0.013	0.460	0.999	0.411	0.486	0.769	0.103	0.485	0.736	-0.055	0.522	0.900	0.015	0.320	0.933	1.415	0.310	0.931	1.258	-0.028	0.751	1.148	0.080	0.789	0.937	0.228	0.910	0.792	0.667	0.846	1.072	0.519	0.832	0.883	0.321	0.900	0.764	0.306	0.798	0.838
214	3.55000	0.000	0.000	0.000	0.145	0.968	0.399	0.218	0.753	0.084	0.229	0.751	-0.078	0.173	0.891	0.013	0.455	1.010	0.395	0.484	0.767	0.098	0.485	0.740	-0.061	0.520	0.900	0.016	0.318	0.941	1.381	0.308	0.936	1.224	-0.029	0.763	1.108	0.083	0.791	0.898	0.246	0.898	0.758	0.668	0.849	1.042	0.522	0.831	0.852	0.316	0.895	0.745	0.308	0.790	0.814
215	3.56667	0.000	0.000	0.000	0.145	0.982	0.390	0.218	0.753	0.086	0.227	0.750	-0.076	0.173	0.891	0.013	0.449	1.019	0.383	0.483	0.765	0.095	0.486	0.742	-0.065	0.518	0.901	0.016	0.315	0.949	1.352	0.306	0.940	1.196	-0.030	0.774	1.072	0.088	0.791	0.863	0.262	0.881	0.724	0.670	0.855	1.017	0.525	0.832	0.827	0.310	0.888	0.734	0.310	0.783	0.793
216	3.58333	0.000	0.000	0.000	0.147	0.994	0.384	0.218	0.754	0.088	0.225	0.748	-0.074	0.173	0.891	0.013	0.446	1.027	0.374	0.483	0.765	0.094	0.486	0.742	-0.065	0.518	0.901	0.016	0.313	0.956	1.326	0.304	0.943	1.172	-0.032	0.783	1.041	0.092	0.791	0.836	0.273	0.861	0.695	0.673	0.864	0.997	0.528	0.833	0.807	0.308	0.881	0.722	0.313	0.775	0.775
